<svg width="24" height="24" viewBox="0 0 24 24" fill="none" xmlns="http://www.w3.org/2000/svg">
<g id="Group 40045">
<path id="&#194;&#183;" d="M12.0001 13.5C11.7262 13.5 11.4728 13.4335 11.2399 13.3005C11.0116 13.1628 10.829 12.9794 10.692 12.75C10.5596 12.5161 10.4957 12.2638 10.5002 11.9931C10.4957 11.7225 10.5596 11.4725 10.692 11.2431C10.829 11.0138 11.0116 10.8326 11.2399 10.6995C11.4728 10.5665 11.7262 10.5 12.0001 10.5C12.2649 10.5 12.5115 10.5665 12.7398 10.6995C12.9726 10.8326 13.1576 11.0138 13.2945 11.2431C13.4315 11.4725 13.5 11.7225 13.5 11.9931C13.5 12.2638 13.4315 12.5161 13.2945 12.75C13.1576 12.9794 12.9726 13.1628 12.7398 13.3005C12.5115 13.4335 12.2649 13.5 12.0001 13.5Z" fill="#5D6982"/>
</g>
</svg>
