<svg width="16" height="16" viewBox="0 0 16 16" fill="none" xmlns="http://www.w3.org/2000/svg">
<g id="01 align center">
<path id="Vector" d="M13.9999 16.0002H10.6666V14.6669H13.9999C14.1767 14.6669 14.3463 14.5966 14.4713 14.4716C14.5963 14.3466 14.6666 14.177 14.6666 14.0002V10.6669H15.9999V14.0002C15.9999 14.5306 15.7892 15.0393 15.4141 15.4144C15.039 15.7895 14.5303 16.0002 13.9999 16.0002Z" fill="#3275FD"/>
<path id="Vector_2" d="M1.33333 5.33333H0V2C0 1.46957 0.210714 0.960859 0.585786 0.585786C0.960859 0.210714 1.46957 0 2 0L5.33333 0V1.33333H2C1.82319 1.33333 1.65362 1.40357 1.5286 1.5286C1.40357 1.65362 1.33333 1.82319 1.33333 2V5.33333Z" fill="#3275FD"/>
<path id="Vector_3" d="M5.33333 16.0002H2C1.46957 16.0002 0.960859 15.7895 0.585786 15.4144C0.210714 15.0393 0 14.5306 0 14.0002L0 10.6669H1.33333V14.0002C1.33333 14.177 1.40357 14.3466 1.5286 14.4716C1.65362 14.5966 1.82319 14.6669 2 14.6669H5.33333V16.0002Z" fill="#3275FD"/>
<path id="Vector_4" d="M15.9999 5.33333H14.6666V2C14.6666 1.82319 14.5963 1.65362 14.4713 1.5286C14.3463 1.40357 14.1767 1.33333 13.9999 1.33333H10.6666V0H13.9999C14.5303 0 15.039 0.210714 15.4141 0.585786C15.7892 0.960859 15.9999 1.46957 15.9999 2V5.33333Z" fill="#3275FD"/>
</g>
</svg>
