<svg width="21" height="20" viewBox="0 0 21 20" fill="none" xmlns="http://www.w3.org/2000/svg">
<g id="Group 40051">
<g id="Group 40054">
<path id="Vector" d="M10.75 3.33336C11.6343 3.33626 12.5093 3.51451 13.3243 3.85781C14.1393 4.20111 14.8781 4.70263 15.498 5.33335H12.75V6.66668H16.1787C16.5069 6.66632 16.8216 6.53578 17.0537 6.30369C17.2858 6.07159 17.4163 5.75691 17.4167 5.42868V2.00003H16.0833V4.05202C14.935 3.01793 13.5113 2.33913 11.9849 2.0979C10.4586 1.85667 8.89496 2.06337 7.48368 2.69293C6.0724 3.3225 4.87404 4.34791 4.03384 5.64488C3.19364 6.94184 2.74768 8.45467 2.75001 10H4.08334C4.08528 8.23249 4.78828 6.53793 6.03811 5.28811C7.28793 4.0383 8.98249 3.3353 10.75 3.33336Z" fill="#374957"/>
<path id="Vector_2" d="M17.4163 9.99994C17.4183 11.3235 17.0256 12.6176 16.2885 13.7169C15.5515 14.8163 14.5034 15.6709 13.2783 16.1718C12.0532 16.6727 10.7066 16.797 9.41045 16.5289C8.11433 16.2608 6.92755 15.6124 6.00167 14.6666H8.74967V13.3333H5.32101C4.99278 13.3336 4.67809 13.4642 4.446 13.6962C4.21391 13.9283 4.08336 14.243 4.08301 14.5713V17.9999H5.41634V15.9479C6.56469 16.982 7.98834 17.6608 9.51473 17.902C11.0411 18.1433 12.6047 17.9366 14.016 17.307C15.4273 16.6774 16.6256 15.652 17.4658 14.3551C18.306 13.0581 18.752 11.5453 18.7497 9.99994H17.4163Z" fill="#374957"/>
</g>
</g>
</svg>
